<svg width="120" height="40" viewBox="0 0 120 40" fill="none" xmlns="http://www.w3.org/2000/svg">
<g clip-path="url(#clip0_4_7346)">
<path d="M110.303 0.00013H9.70265C9.33595 0.00013 8.97365 0.00013 8.60792 0.00213C8.30177 0.00413 7.99806 0.00994 7.68897 0.01483C7.01748 0.0227318 6.34758 0.0818063 5.68507 0.19154C5.02349 0.303663 4.38264 0.515046 3.78419 0.81854C3.18647 1.1246 2.64031 1.5223 2.16554 1.9972C1.68827 2.47077 1.29043 3.01815 0.987319 3.61829C0.683369 4.21724 0.472609 4.85907 0.362319 5.52161C0.25098 6.18332 0.191067 6.85265 0.183119 7.52361C0.173839 7.83021 0.172859 8.13783 0.167969 8.44447V31.5587C0.172859 31.8692 0.173839 32.17 0.183119 32.4806C0.19107 33.1516 0.250982 33.8209 0.362319 34.4825C0.472305 35.1455 0.683077 35.7877 0.987319 36.3868C1.29029 36.985 1.68819 37.5302 2.16554 38.0011C2.63851 38.4781 3.18502 38.8761 3.78419 39.1798C4.38264 39.4841 5.02342 39.6968 5.68507 39.8106C6.34769 39.9195 7.01753 39.9786 7.68897 39.9874C7.99806 39.9942 8.30177 39.9981 8.60792 39.9981C8.97364 40.0001 9.33597 40.0001 9.70265 40.0001H110.303C110.662 40.0001 111.027 40.0001 111.387 39.9981C111.691 39.9981 112.004 39.9942 112.309 39.9874C112.979 39.9791 113.647 39.92 114.309 39.8106C114.972 39.696 115.616 39.4834 116.217 39.1798C116.815 38.8759 117.361 38.478 117.834 38.0011C118.31 37.5284 118.709 36.9836 119.016 36.3868C119.318 35.7872 119.526 35.1451 119.635 34.4825C119.746 33.8208 119.808 33.1516 119.82 32.4806C119.824 32.17 119.824 31.8692 119.824 31.5587C119.832 31.1954 119.832 30.8341 119.832 30.4649V9.53626C119.832 9.17005 119.832 8.80677 119.824 8.44447C119.824 8.13783 119.824 7.83021 119.82 7.52357C119.808 6.85255 119.746 6.18337 119.635 5.52157C119.526 4.85941 119.317 4.21763 119.016 3.61825C118.398 2.41533 117.42 1.43616 116.217 0.81845C115.615 0.515697 114.972 0.30437 114.309 0.19145C113.648 0.0812328 112.979 0.0221378 112.309 0.01469C112.004 0.00981 111.691 0.00395 111.387 0.002C111.027 0 110.662 0.00013 110.303 0.00013Z" fill="#A6A6A6"/>
<path d="M8.61284 39.125C8.30816 39.125 8.01084 39.1211 7.70855 39.1143C7.08233 39.1061 6.45757 39.0516 5.83941 38.9512C5.263 38.8519 4.70461 38.6673 4.18267 38.4033C3.66551 38.1415 3.19382 37.7983 2.78567 37.3867C2.37161 36.98 2.02688 36.5082 1.76516 35.9902C1.50054 35.4688 1.31742 34.9099 1.22216 34.333C1.11928 33.7131 1.06362 33.0863 1.05566 32.458C1.04932 32.2471 1.04102 31.5449 1.04102 31.5449V8.44434C1.04102 8.44434 1.04986 7.75293 1.05571 7.5498C1.06333 6.92248 1.11867 6.29665 1.22124 5.67773C1.31667 5.09925 1.49994 4.53875 1.7647 4.01563C2.02546 3.49794 2.36827 3.02586 2.77984 2.61768C3.19094 2.20562 3.66414 1.8606 4.18218 1.59521C4.70292 1.33209 5.26025 1.14873 5.8355 1.05127C6.45569 0.949836 7.08262 0.894996 7.71101 0.88721L8.61333 0.875H111.382L112.295 0.8877C112.918 0.895099 113.539 0.94945 114.153 1.05029C114.734 1.14898 115.298 1.33362 115.824 1.59814C116.862 2.13299 117.707 2.97916 118.239 4.01807C118.5 4.53758 118.68 5.09351 118.774 5.66699C118.878 6.29099 118.936 6.92174 118.948 7.5542C118.951 7.8374 118.951 8.1416 118.951 8.44434C118.959 8.81934 118.959 9.17627 118.959 9.53613V30.4648C118.959 30.8281 118.959 31.1826 118.951 31.54C118.951 31.8652 118.951 32.1631 118.947 32.4697C118.936 33.0909 118.878 33.7104 118.776 34.3232C118.683 34.9043 118.501 35.4675 118.236 35.9932C117.973 36.5056 117.63 36.9733 117.221 37.3789C116.812 37.7927 116.34 38.1379 115.821 38.4014C115.296 38.6674 114.734 38.8527 114.153 38.9512C113.535 39.0522 112.91 39.1067 112.284 39.1143C111.991 39.1211 111.685 39.125 111.387 39.125L110.303 39.127L8.61284 39.125Z" fill="black"/>
<path d="M24.937 20.3013C24.9477 19.4666 25.1694 18.6483 25.5814 17.9223C25.9935 17.1964 26.5824 16.5864 27.2935 16.1492C26.8418 15.5041 26.2458 14.9731 25.553 14.5986C24.8602 14.224 24.0896 14.0162 23.3024 13.9916C21.6231 13.8153 19.9952 14.9964 19.1395 14.9964C18.2672 14.9964 16.9497 14.0091 15.531 14.0383C14.6133 14.0679 13.7189 14.3348 12.9351 14.8128C12.1512 15.2909 11.5045 15.9638 11.058 16.7661C9.12404 20.1145 10.5666 25.0356 12.4192 27.7422C13.3461 29.0676 14.4294 30.548 15.8469 30.4955C17.2339 30.438 17.752 29.611 19.4263 29.611C21.085 29.611 21.5711 30.4955 23.0173 30.4621C24.5057 30.438 25.4434 29.1309 26.3378 27.793C27.0038 26.8486 27.5162 25.8049 27.8562 24.7005C26.9915 24.3347 26.2536 23.7226 25.7345 22.9403C25.2153 22.158 24.938 21.2402 24.937 20.3013Z" fill="white"/>
<path d="M22.2055 12.2113C23.0171 11.2371 23.4169 9.98494 23.3201 8.7207C22.0802 8.85092 20.935 9.44348 20.1125 10.3803C19.7103 10.838 19.4023 11.3704 19.2061 11.9472C19.0099 12.524 18.9292 13.1337 18.9688 13.7417C19.5889 13.7481 20.2024 13.6137 20.7631 13.3486C21.3237 13.0835 21.8169 12.6946 22.2055 12.2113Z" fill="white"/>
<path d="M42.4707 27.1397H37.7373L36.6006 30.4961H34.5957L39.0791 18.0781H41.1621L45.6455 30.4961H43.6064L42.4707 27.1397ZM38.2275 25.5908H41.9795L40.1299 20.1436H40.0782L38.2275 25.5908Z" fill="white"/>
<path d="M55.3282 25.9695C55.3282 28.7829 53.8223 30.5905 51.5498 30.5905C50.9742 30.6207 50.4017 30.4881 49.8979 30.2079C49.3941 29.9278 48.9794 29.5114 48.7012 29.0065H48.6582V33.4909H46.7998V21.4421H48.5987V22.948H48.6328C48.9238 22.4455 49.3455 22.0313 49.8532 21.7495C50.3608 21.4676 50.9353 21.3287 51.5157 21.3474C53.8135 21.3474 55.3282 23.1638 55.3282 25.9695ZM53.418 25.9695C53.418 24.1365 52.4707 22.9314 51.0254 22.9314C49.6055 22.9314 48.6504 24.1618 48.6504 25.9695C48.6504 27.7937 49.6055 29.0154 51.0254 29.0154C52.4707 29.0154 53.418 27.8191 53.418 25.9695Z" fill="white"/>
<path d="M65.293 25.9694C65.293 28.7829 63.7871 30.5905 61.5147 30.5905C60.939 30.6206 60.3665 30.488 59.8627 30.2079C59.3589 29.9278 58.9442 29.5114 58.666 29.0065H58.623V33.4909H56.7646V21.4421H58.5635V22.948H58.5976C58.8886 22.4455 59.3103 22.0313 59.818 21.7495C60.3256 21.4676 60.9001 21.3287 61.4805 21.3474C63.7783 21.3474 65.293 23.1638 65.293 25.9694ZM63.3828 25.9694C63.3828 24.1364 62.4356 22.9314 60.9903 22.9314C59.5703 22.9314 58.6153 24.1618 58.6153 25.9694C58.6153 27.7937 59.5703 29.0153 60.9903 29.0153C62.4356 29.0153 63.3828 27.8191 63.3828 25.9694Z" fill="white"/>
<path d="M71.8789 27.0362C72.0166 28.2676 73.2129 29.0762 74.8477 29.0762C76.4141 29.0762 77.541 28.2676 77.541 27.1572C77.541 26.1934 76.8614 25.6162 75.252 25.2207L73.6426 24.833C71.3623 24.2822 70.3037 23.2158 70.3037 21.4854C70.3037 19.3428 72.1709 17.8711 74.8223 17.8711C77.4463 17.8711 79.2451 19.3428 79.3057 21.4854H77.4297C77.3174 20.2461 76.293 19.4981 74.7959 19.4981C73.2988 19.4981 72.2744 20.2549 72.2744 21.3565C72.2744 22.2344 72.9287 22.751 74.5293 23.1465L75.8975 23.4824C78.4453 24.0849 79.5039 25.1084 79.5039 26.9248C79.5039 29.248 77.6533 30.7031 74.71 30.7031C71.9561 30.7031 70.0967 29.2822 69.9766 27.0361L71.8789 27.0362Z" fill="white"/>
<path d="M83.5146 19.2998V21.4424H85.2363V22.9141H83.5146V27.9053C83.5146 28.6807 83.8594 29.042 84.6162 29.042C84.8206 29.0384 85.0247 29.0241 85.2275 28.999V30.4619C84.8873 30.5255 84.5414 30.5543 84.1953 30.5478C82.3623 30.5478 81.6475 29.8593 81.6475 28.1035V22.9141H80.3311V21.4424H81.6474V19.2998H83.5146Z" fill="white"/>
<path d="M86.2334 25.9697C86.2334 23.1211 87.9111 21.3311 90.5273 21.3311C93.1523 21.3311 94.8223 23.1211 94.8223 25.9697C94.8223 28.8262 93.1611 30.6084 90.5273 30.6084C87.8945 30.6084 86.2334 28.8262 86.2334 25.9697ZM92.9287 25.9697C92.9287 24.0156 92.0332 22.8623 90.5273 22.8623C89.0215 22.8623 88.1269 24.0244 88.1269 25.9697C88.1269 27.9316 89.0215 29.0762 90.5273 29.0762C92.0332 29.0762 92.9287 27.9316 92.9287 25.9697Z" fill="white"/>
<path d="M96.3545 21.442H98.127V22.983H98.17C98.2899 22.5017 98.5718 22.0764 98.9684 21.7785C99.365 21.4806 99.8521 21.3284 100.348 21.3473C100.562 21.3465 100.775 21.3698 100.984 21.4166V23.1549C100.714 23.0723 100.432 23.0343 100.149 23.0426C99.8794 23.0316 99.6103 23.0792 99.3604 23.1821C99.1106 23.285 98.886 23.4408 98.702 23.6386C98.518 23.8365 98.3791 24.0719 98.2946 24.3286C98.2102 24.5852 98.1823 24.8571 98.2129 25.1256V30.4957H96.3545L96.3545 21.442Z" fill="white"/>
<path d="M109.553 27.8369C109.303 29.4805 107.702 30.6084 105.654 30.6084C103.021 30.6084 101.386 28.8437 101.386 26.0127C101.386 23.1729 103.029 21.3311 105.576 21.3311C108.081 21.3311 109.656 23.0518 109.656 25.7969V26.4336H103.262V26.5459C103.232 26.8791 103.274 27.2148 103.384 27.5306C103.494 27.8464 103.67 28.1352 103.901 28.3778C104.131 28.6203 104.41 28.8111 104.72 28.9374C105.03 29.0637 105.363 29.1226 105.697 29.1103C106.136 29.1515 106.577 29.0498 106.954 28.8203C107.331 28.5909 107.623 28.246 107.788 27.8369L109.553 27.8369ZM103.271 25.1348H107.797C107.814 24.8352 107.768 24.5354 107.663 24.2541C107.559 23.9729 107.397 23.7164 107.189 23.5006C106.98 23.2849 106.729 23.1145 106.452 23.0003C106.174 22.8861 105.876 22.8305 105.576 22.8369C105.274 22.8351 104.974 22.8933 104.694 23.008C104.413 23.1227 104.159 23.2918 103.945 23.5054C103.73 23.7191 103.56 23.973 103.445 24.2527C103.329 24.5323 103.27 24.8321 103.271 25.1348Z" fill="white"/>
<path d="M37.9941 8.7304C38.3838 8.70244 38.7747 8.7613 39.1388 8.90274C39.5029 9.04417 39.8311 9.26465 40.0997 9.54828C40.3683 9.8319 40.5706 10.1716 40.692 10.5429C40.8134 10.9141 40.8509 11.3077 40.8018 11.6952C40.8018 13.6015 39.7715 14.6972 37.9941 14.6972H35.8389V8.7304H37.9941ZM36.7656 13.8534H37.8906C38.169 13.87 38.4476 13.8244 38.7062 13.7198C38.9647 13.6152 39.1967 13.4542 39.3852 13.2487C39.5737 13.0431 39.7139 12.7981 39.7958 12.5315C39.8777 12.2648 39.899 11.9833 39.8584 11.7074C39.8961 11.4326 39.8725 11.1528 39.7894 10.8881C39.7063 10.6235 39.5657 10.3805 39.3776 10.1765C39.1896 9.97261 38.9587 9.8128 38.7016 9.70856C38.4445 9.60433 38.1676 9.55824 37.8906 9.57361H36.7656V13.8534Z" fill="white"/>
<path d="M41.8489 12.4438C41.8206 12.1479 41.8545 11.8493 41.9483 11.5672C42.0421 11.2852 42.1939 11.0258 42.3938 10.8059C42.5938 10.5859 42.8375 10.4101 43.1093 10.2898C43.3812 10.1696 43.6752 10.1074 43.9724 10.1074C44.2697 10.1074 44.5637 10.1696 44.8356 10.2898C45.1074 10.4101 45.3511 10.5859 45.5511 10.8059C45.751 11.0258 45.9028 11.2852 45.9966 11.5672C46.0904 11.8493 46.1243 12.1479 46.096 12.4438C46.1248 12.74 46.0914 13.039 45.9978 13.3215C45.9042 13.6041 45.7525 13.8639 45.5525 14.0843C45.3525 14.3047 45.1086 14.4808 44.8365 14.6014C44.5644 14.7219 44.2701 14.7842 43.9724 14.7842C43.6748 14.7842 43.3805 14.7219 43.1084 14.6014C42.8362 14.4808 42.5924 14.3047 42.3924 14.0843C42.1924 13.8639 42.0407 13.6041 41.9471 13.3215C41.8535 13.039 41.8201 12.74 41.8489 12.4438ZM45.1819 12.4438C45.1819 11.4677 44.7434 10.8969 43.9739 10.8969C43.2015 10.8969 42.7669 11.4677 42.7669 12.4438C42.7669 13.4277 43.2015 13.9941 43.9739 13.9941C44.7435 13.9941 45.1819 13.4238 45.1819 12.4438Z" fill="white"/>
<path d="M51.7412 14.6973H50.8193L49.8887 11.3809H49.8184L48.8916 14.6973H47.9785L46.7373 10.1943H47.6387L48.4453 13.6303H48.5117L49.4375 10.1943H50.29L51.2158 13.6303H51.2861L52.0889 10.1943H52.9775L51.7412 14.6973Z" fill="white"/>
<path d="M54.0215 10.1939H54.877V10.9092H54.9434C55.056 10.6523 55.246 10.4369 55.4869 10.2931C55.7278 10.1493 56.0075 10.0842 56.2871 10.107C56.5062 10.0905 56.7262 10.1235 56.9308 10.2036C57.1354 10.2837 57.3194 10.4088 57.469 10.5697C57.6187 10.7305 57.7303 10.923 57.7955 11.1328C57.8607 11.3426 57.8779 11.5644 57.8457 11.7818V14.6968H56.957V12.0049C56.957 11.2813 56.6426 10.9214 55.9854 10.9214C55.8366 10.9145 55.6881 10.9398 55.55 10.9957C55.412 11.0515 55.2876 11.1365 55.1855 11.2449C55.0834 11.3533 55.0059 11.4825 54.9584 11.6236C54.9108 11.7647 54.8944 11.9145 54.9102 12.0625V14.6968H54.0215L54.0215 10.1939Z" fill="white"/>
<path d="M59.2617 8.43652H60.1504V14.6973H59.2617V8.43652Z" fill="white"/>
<path d="M61.386 12.4439C61.3577 12.1479 61.3916 11.8494 61.4854 11.5673C61.5793 11.2852 61.7311 11.0259 61.9311 10.8059C62.131 10.5859 62.3747 10.4101 62.6466 10.2898C62.9185 10.1696 63.2125 10.1074 63.5098 10.1074C63.8071 10.1074 64.1011 10.1696 64.3729 10.2898C64.6448 10.4101 64.8885 10.5859 65.0885 10.8059C65.2885 11.0259 65.4402 11.2852 65.5341 11.5673C65.628 11.8494 65.6618 12.1479 65.6336 12.4439C65.6624 12.7401 65.6289 13.0391 65.5353 13.3216C65.4416 13.6042 65.29 13.864 65.0899 14.0844C64.8899 14.3048 64.646 14.4809 64.3739 14.6014C64.1017 14.722 63.8074 14.7842 63.5098 14.7842C63.2121 14.7842 62.9178 14.722 62.6457 14.6014C62.3735 14.4809 62.1296 14.3048 61.9296 14.0844C61.7296 13.864 61.5779 13.6042 61.4843 13.3216C61.3907 13.0391 61.3572 12.7401 61.386 12.4439ZM64.719 12.4439C64.719 11.4678 64.2805 10.897 63.511 10.897C62.7385 10.897 62.304 11.4678 62.304 12.4439C62.304 13.4278 62.7386 13.9942 63.511 13.9942C64.2805 13.9942 64.719 13.4239 64.719 12.4439Z" fill="white"/>
<path d="M66.5684 13.4238C66.5684 12.6133 67.1719 12.146 68.2432 12.0796L69.4629 12.0093V11.6206C69.4629 11.145 69.1484 10.8765 68.541 10.8765C68.0449 10.8765 67.7012 11.0586 67.6025 11.377H66.7422C66.833 10.6035 67.5606 10.1074 68.582 10.1074C69.7109 10.1074 70.3477 10.6694 70.3477 11.6206V14.6973H69.4922V14.0645H69.4219C69.2792 14.2914 69.0788 14.4765 68.8411 14.6007C68.6035 14.7249 68.3372 14.7838 68.0693 14.7715C67.8803 14.7911 67.6892 14.7709 67.5085 14.7122C67.3277 14.6536 67.1613 14.5576 67.0199 14.4307C66.8784 14.3037 66.7652 14.1485 66.6874 13.9751C66.6097 13.8017 66.5691 13.6139 66.5684 13.4238ZM69.4629 13.0391V12.6626L68.3633 12.7329C67.7432 12.7744 67.4619 12.9853 67.4619 13.3823C67.4619 13.7876 67.8135 14.0234 68.2969 14.0234C68.4386 14.0378 68.5816 14.0235 68.7176 13.9814C68.8536 13.9393 68.9798 13.8703 69.0886 13.7784C69.1974 13.6866 69.2866 13.5738 69.3509 13.4468C69.4152 13.3198 69.4533 13.1811 69.4629 13.0391Z" fill="white"/>
<path d="M71.5156 12.4439C71.5156 11.021 72.2471 10.1196 73.3848 10.1196C73.6662 10.1067 73.9455 10.1741 74.19 10.314C74.4345 10.4539 74.6342 10.6605 74.7656 10.9096H74.832V8.43652H75.7207V14.6973H74.8691V13.9858H74.7988C74.6572 14.2333 74.4506 14.4374 74.2014 14.5758C73.9521 14.7143 73.6697 14.782 73.3848 14.7715C72.2393 14.7715 71.5156 13.8701 71.5156 12.4439ZM72.4336 12.4439C72.4336 13.3989 72.8838 13.9737 73.6368 13.9737C74.3858 13.9737 74.8487 13.3907 74.8487 12.4478C74.8487 11.5093 74.3809 10.918 73.6368 10.918C72.8887 10.918 72.4336 11.4966 72.4336 12.4439Z" fill="white"/>
<path d="M79.3977 12.4438C79.3694 12.1479 79.4033 11.8493 79.4971 11.5672C79.591 11.2852 79.7427 11.0258 79.9427 10.8059C80.1426 10.5859 80.3863 10.4101 80.6582 10.2898C80.93 10.1696 81.224 10.1074 81.5213 10.1074C81.8185 10.1074 82.1125 10.1696 82.3844 10.2898C82.6562 10.4101 82.8999 10.5859 83.0999 10.8059C83.2998 11.0258 83.4516 11.2852 83.5454 11.5672C83.6393 11.8493 83.6731 12.1479 83.6448 12.4438C83.6737 12.74 83.6402 13.039 83.5466 13.3215C83.453 13.6041 83.3014 13.8639 83.1014 14.0843C82.9014 14.3047 82.6575 14.4808 82.3854 14.6014C82.1132 14.7219 81.8189 14.7842 81.5213 14.7842C81.2237 14.7842 80.9293 14.7219 80.6572 14.6014C80.3851 14.4808 80.1412 14.3047 79.9412 14.0843C79.7412 13.8639 79.5895 13.6041 79.4959 13.3215C79.4023 13.039 79.3689 12.74 79.3977 12.4438ZM82.7307 12.4438C82.7307 11.4677 82.2923 10.8969 81.5227 10.8969C80.7503 10.8969 80.3157 11.4677 80.3157 12.4438C80.3157 13.4277 80.7503 13.9941 81.5227 13.9941C82.2923 13.9941 82.7307 13.4238 82.7307 12.4438Z" fill="white"/>
<path d="M84.8369 10.1939H85.6924V10.9092H85.7588C85.8715 10.6523 86.0615 10.4369 86.3023 10.2931C86.5432 10.1493 86.8229 10.0842 87.1025 10.107C87.3216 10.0905 87.5416 10.1235 87.7462 10.2036C87.9508 10.2837 88.1348 10.4088 88.2845 10.5697C88.4342 10.7305 88.5457 10.923 88.6109 11.1328C88.6761 11.3426 88.6933 11.5644 88.6611 11.7818V14.6968H87.7725V12.0049C87.7725 11.2813 87.458 10.9214 86.8008 10.9214C86.652 10.9145 86.5035 10.9398 86.3655 10.9957C86.2274 11.0515 86.1031 11.1365 86.0009 11.2449C85.8988 11.3533 85.8213 11.4825 85.7738 11.6236C85.7263 11.7647 85.7098 11.9145 85.7256 12.0625V14.6968H84.8369V10.1939Z" fill="white"/>
<path d="M93.6826 9.07324V10.2148H94.6582V10.9634H93.6826V13.2788C93.6826 13.7505 93.877 13.957 94.3193 13.957C94.4326 13.9567 94.5457 13.9498 94.6582 13.9365V14.6768C94.4986 14.7053 94.3369 14.7205 94.1748 14.7222C93.1865 14.7222 92.793 14.3745 92.793 13.5063V10.9633H92.0781V10.2148H92.793V9.07324H93.6826Z" fill="white"/>
<path d="M95.873 8.43652H96.7539V10.918H96.8242C96.9423 10.6587 97.1376 10.4421 97.3833 10.2977C97.629 10.1534 97.9132 10.0883 98.1972 10.1113C98.4152 10.0995 98.6331 10.1359 98.8353 10.2179C99.0376 10.2999 99.2193 10.4256 99.3674 10.586C99.5155 10.7463 99.6265 10.9373 99.6922 11.1455C99.758 11.3536 99.7771 11.5737 99.748 11.79V14.6973H98.8584V12.0093C98.8584 11.29 98.5234 10.9258 97.8955 10.9258C97.7428 10.9132 97.5892 10.9342 97.4454 10.9873C97.3016 11.0404 97.1712 11.1242 97.0632 11.2329C96.9552 11.3417 96.8723 11.4727 96.8202 11.6168C96.7681 11.761 96.7482 11.9147 96.7618 12.0674V14.6973H95.8731L95.873 8.43652Z" fill="white"/>
<path d="M104.929 13.4815C104.809 13.8931 104.547 14.249 104.19 14.4872C103.834 14.7253 103.405 14.8305 102.978 14.7842C102.682 14.7921 102.387 14.7353 102.114 14.6177C101.842 14.5002 101.598 14.3248 101.4 14.1036C101.202 13.8825 101.055 13.6209 100.968 13.3371C100.881 13.0533 100.858 12.754 100.898 12.46C100.859 12.1652 100.883 11.8652 100.969 11.5805C101.056 11.2959 101.203 11.0331 101.399 10.81C101.596 10.587 101.839 10.4088 102.11 10.2876C102.382 10.1664 102.677 10.105 102.974 10.1075C104.227 10.1075 104.983 10.9635 104.983 12.3775V12.6876H101.803V12.7374C101.789 12.9026 101.81 13.069 101.864 13.2257C101.918 13.3825 102.005 13.5262 102.118 13.6476C102.231 13.7691 102.368 13.8656 102.52 13.931C102.672 13.9964 102.837 14.0292 103.003 14.0274C103.215 14.0529 103.431 14.0146 103.621 13.9174C103.812 13.8202 103.97 13.6685 104.074 13.4815L104.929 13.4815ZM101.803 12.0303H104.078C104.089 11.8792 104.068 11.7274 104.017 11.5847C103.967 11.442 103.886 11.3115 103.782 11.2016C103.677 11.0918 103.551 11.005 103.411 10.9468C103.271 10.8886 103.121 10.8604 102.969 10.8638C102.816 10.8619 102.663 10.8908 102.521 10.9487C102.378 11.0067 102.249 11.0925 102.14 11.2012C102.032 11.3099 101.946 11.4393 101.888 11.5817C101.83 11.7241 101.801 11.8766 101.803 12.0303Z" fill="white"/>
</g>
<defs>
<clipPath id="clip0_4_7346">
<rect width="119.664" height="40" fill="white" transform="translate(0.167969)"/>
</clipPath>
</defs>
</svg>
