<svg width="18" height="18" viewBox="0 0 18 18" fill="none" xmlns="http://www.w3.org/2000/svg">
<rect width="18" height="18" fill="none"/>
<path d="M0.2802 17.7198C0.459861 17.8992 0.70339 18 0.9573 18C1.21121 18 1.45474 17.8992 1.6344 17.7198L4.78706 14.5671C4.80484 14.5492 4.82597 14.5351 4.84924 14.5254C4.8725 14.5158 4.89744 14.5108 4.92263 14.5108C4.94782 14.5108 4.97276 14.5158 4.99602 14.5254C5.01928 14.5351 5.04041 14.5492 5.0582 14.5671L6.16041 15.6693C6.23145 15.7406 6.31584 15.7971 6.40876 15.8358C6.50168 15.8744 6.6013 15.8944 6.70193 15.8945C6.80262 15.8948 6.90236 15.875 6.99529 15.8363C7.13522 15.7783 7.2548 15.6801 7.33892 15.5541C7.42304 15.4281 7.46792 15.28 7.46788 15.1285V11.2987C7.46788 11.0955 7.38719 10.9007 7.24354 10.7571C7.0999 10.6134 6.90508 10.5327 6.70193 10.5327H2.87218C2.72071 10.5327 2.57265 10.5777 2.44672 10.6619C2.32079 10.746 2.22265 10.8656 2.16469 11.0056C2.10673 11.1455 2.09156 11.2995 2.1211 11.4481C2.15064 11.5966 2.22356 11.7331 2.33065 11.8402L3.43285 12.9425C3.45069 12.9602 3.46484 12.9814 3.47449 13.0046C3.48414 13.0279 3.48911 13.0528 3.48911 13.078C3.48911 13.1032 3.48414 13.1282 3.47449 13.1514C3.46484 13.1747 3.45069 13.1958 3.43285 13.2136L0.2802 16.3656C0.100778 16.5452 0 16.7888 0 17.0427C0 17.2966 0.100778 17.5401 0.2802 17.7198Z" fill="#00798a"/>
<path d="M17.7194 0.280206C17.5398 0.10078 17.2962 0 17.0423 0C16.7884 0 16.5449 0.10078 16.3652 0.280206L13.2126 3.43293C13.1948 3.45077 13.1736 3.46492 13.1504 3.47457C13.1271 3.48422 13.1022 3.48919 13.077 3.48919C13.0518 3.48919 13.0269 3.48422 13.0036 3.47457C12.9803 3.46492 12.9592 3.45077 12.9414 3.43293L11.8392 2.33071C11.7321 2.22357 11.5955 2.15063 11.4469 2.12111C11.2983 2.09159 11.1442 2.10683 11.0042 2.16488C10.8643 2.22294 10.7447 2.32121 10.6606 2.44726C10.5764 2.57331 10.5316 2.72148 10.5317 2.87301V6.70286C10.5317 6.906 10.6124 7.10083 10.7561 7.24448C10.8997 7.38813 11.0945 7.46883 11.2977 7.46883H15.1274C15.2789 7.46879 15.427 7.42385 15.5529 7.33968C15.6788 7.25552 15.777 7.1359 15.8349 6.99596C15.8929 6.85602 15.9081 6.70203 15.8785 6.55347C15.849 6.40491 15.7761 6.26844 15.669 6.16132L14.5668 5.05832C14.549 5.0406 14.5348 5.01953 14.5252 4.99633C14.5155 4.97313 14.5106 4.94825 14.5106 4.92313C14.5106 4.898 14.5155 4.87312 14.5252 4.84992C14.5348 4.82672 14.549 4.80566 14.5668 4.78793L17.7194 1.63521C17.8991 1.45551 18 1.21181 18 0.957706C18 0.703602 17.8991 0.459903 17.7194 0.280206Z" fill="#00798a"/>
</svg>
