<svg width="19" height="20" viewBox="0 0 19 20" fill="none" xmlns="http://www.w3.org/2000/svg">
<g clip-path="url(#clip0_2_2357)">
<path fill-rule="evenodd" clip-rule="evenodd" d="M5.48055 2.23279L6.4342 3.25464C6.47739 3.28616 6.51863 3.32209 6.55738 3.36256L7.9404 4.8067L9.08726 2.23278L5.48055 2.23279ZM3.76999 2.39852L5.0178 3.73557L1.00999 12.4472C0.853352 12.7876 0.921708 13.1894 1.18214 13.4588L2.52487 14.8484C2.54528 14.8774 2.56821 14.9052 2.59371 14.9315L6.2598 18.7116C6.55942 19.0205 6.97144 19.1948 7.40182 19.1948H12.2446C12.5852 19.1948 12.8673 18.9453 12.9183 18.619C13.0173 18.5562 13.1065 18.4725 13.1789 18.3679L17.8745 11.5877C18.2624 11.0276 17.9176 10.277 17.2787 10.1731L16.1855 6.81745C15.9894 6.21569 15.2538 5.9934 14.7573 6.3859L10.3023 9.90783C10.2073 9.98283 10.1333 10.0687 10.0783 10.161H7.15996C7.12417 10.161 7.08913 10.1629 7.05489 10.1667L8.7102 6.42452C8.73917 6.35902 8.7599 6.29137 8.77262 6.22294C8.81751 6.16549 8.85647 6.10123 8.88802 6.03039L10.6178 2.14823C10.8857 1.54697 10.4456 0.869138 9.78743 0.869141L4.43461 0.869163C3.63973 0.869167 3.22766 1.8174 3.76999 2.39852ZM11.2652 17.8312L6.44227 11.6281C6.43496 11.6187 6.42788 11.6093 6.42101 11.5997L4.80509 15.2529L7.23868 17.7622C7.28148 17.8063 7.34034 17.8312 7.40182 17.8312H11.2652ZM2.37871 12.7347L6.0232 4.81287L7.31821 6.20049L3.78441 14.1895L2.37871 12.7347ZM8.08913 11.5246L12.4103 17.0826L16.2557 11.5301H10.866C10.8305 11.5301 10.7958 11.5282 10.762 11.5246H8.08913ZM15.8406 10.161H12.1808L15.0911 7.86034L15.8406 10.161Z" fill="#FFAD43"/>
</g>
<defs>
<clipPath id="clip0_2_2357">
<rect width="18.1818" height="20" fill="white" transform="translate(0.40918)"/>
</clipPath>
</defs>
</svg>
