<svg width="19" height="20" viewBox="0 0 19 20" fill="none" xmlns="http://www.w3.org/2000/svg">
<g clip-path="url(#clip0_2_2351)">
<path fill-rule="evenodd" clip-rule="evenodd" d="M0.177734 17.2594C0.632844 17.4689 1.09631 17.6635 1.56749 17.8423C4.00026 18.7656 6.63873 19.2711 9.39526 19.2711C12.1528 19.2711 14.7922 18.7652 17.2257 17.8413C17.6968 17.6624 18.1602 17.4678 18.6153 17.2582L17.9029 15.9347L16.9662 14.1945L16.1895 12.7513L10.2486 1.71424L9.39683 0.131836L8.54508 1.71424L0.89016 15.9358L0.177734 17.2594ZM9.39683 3.29665L14.7784 13.2946C13.0875 13.8599 11.278 14.1661 9.39696 14.1661C7.51586 14.1661 5.70628 13.8598 4.01536 13.2945L9.39683 3.29665ZM9.39696 15.7997C7.23548 15.7997 5.16014 15.4309 3.23044 14.7528L2.28504 16.5092C4.49937 17.3251 6.89387 17.7711 9.39526 17.7711C11.8977 17.7711 14.2931 17.3248 16.5081 16.5082L15.5633 14.7529C13.6336 15.4309 11.5584 15.7997 9.39696 15.7997ZM11.0003 12.0002C11.5526 12.0002 12.0003 11.5525 12.0003 11.0002C12.0003 10.4479 11.5526 10.0002 11.0003 10.0002C10.448 10.0002 10.0002 10.4479 10.0002 11.0002C10.0002 11.5525 10.448 12.0002 11.0003 12.0002ZM8.68702 12.0002C8.68702 12.5525 8.2393 13.0002 7.68702 13.0002C7.13473 13.0002 6.68702 12.5525 6.68702 12.0002C6.68702 11.4479 7.13473 11.0002 7.68702 11.0002C8.2393 11.0002 8.68702 11.4479 8.68702 12.0002ZM9.32593 9.00024C9.87822 9.00024 10.326 8.55253 10.326 8.00024C10.326 7.44795 9.87822 7.00024 9.32593 7.00024C8.77365 7.00024 8.32593 7.44795 8.32593 8.00024C8.32593 8.55253 8.77365 9.00024 9.32593 9.00024Z" fill="#7A1D47"/>
</g>
<defs>
<clipPath id="clip0_2_2351">
<rect width="19" height="20" fill="white"/>
</clipPath>
</defs>
</svg>
